<?xml version="1.0" encoding="UTF-8" standalone="no" ?>
<!DOCTYPE svg PUBLIC "-//W3C//DTD SVG 1.1//EN" "http://www.w3.org/Graphics/SVG/1.1/DTD/svg11.dtd">
<svg xmlns="http://www.w3.org/2000/svg" xmlns:xlink="http://www.w3.org/1999/xlink" version="1.1" width="1080" height="1080" viewBox="0 0 1080 1080" xml:space="preserve">
<desc>Created with Fabric.js 5.2.4</desc>
<defs>
</defs>
<g transform="matrix(1 0 0 1 540 540)" id="fb29db81-93a4-431e-a6d6-eb221329e565"  >
</g>
<g transform="matrix(1 0 0 1 540 540)" id="39943986-8a7c-4965-93f2-685da3ad53ce"  >
<rect style="stroke: none; stroke-width: 1; stroke-dasharray: none; stroke-linecap: butt; stroke-dashoffset: 0; stroke-linejoin: miter; stroke-miterlimit: 4; fill: rgb(255,255,255); fill-rule: nonzero; opacity: 1; visibility: hidden;" vector-effect="non-scaling-stroke"  x="-540" y="-540" rx="0" ry="0" width="1080" height="1080" />
</g>
<g transform="matrix(0 0 0 0 0 0)"  >
<g style=""   >
</g>
</g>
<g transform="matrix(0.64 0 0 0.64 344.99 217.14)"  >
<rect style="stroke: none; stroke-width: 1; stroke-dasharray: none; stroke-linecap: butt; stroke-dashoffset: 0; stroke-linejoin: miter; stroke-miterlimit: 4; fill: rgb(255,255,255); fill-opacity: 0; fill-rule: nonzero; opacity: 1;" vector-effect="non-scaling-stroke"  x="-50" y="-50" rx="0" ry="0" width="100" height="100" />
</g>
<g transform="matrix(0.64 0 0 0.64 658.59 530.74)" id="e8544180-2e94-47ad-8819-d0ad3c1ad90a"  >
<rect style="stroke: none; stroke-width: 1; stroke-dasharray: none; stroke-linecap: butt; stroke-dashoffset: 0; stroke-linejoin: miter; stroke-miterlimit: 4; fill: rgb(255,255,255); fill-rule: nonzero; opacity: 1; visibility: hidden;" vector-effect="non-scaling-stroke"  x="-540" y="-540" rx="0" ry="0" width="1080" height="1080" />
</g>
<g transform="matrix(9.84 0 0 9.84 581.63 540)"  >
<path style="stroke: none; stroke-width: 0.26; stroke-dasharray: none; stroke-linecap: butt; stroke-dashoffset: 0; stroke-linejoin: miter; stroke-miterlimit: 4; fill: rgb(0,0,0); fill-rule: evenodd; opacity: 1;" vector-effect="non-scaling-stroke"  transform=" translate(-100.67, -113.89)" d="M 73.858863 79.837039 L 73.283663 80.44955 L 73.283663 113.92226 L 73.283663 147.39496 L 73.895903 147.97043 L 74.508413 148.54563 L 100.84239000000001 148.54563 C 126.01855 148.54563 127.19595000000001 148.52443 127.61452000000001 148.06170999999998 C 128.01722 147.61693999999997 128.05241 144.86209999999997 128.05241 113.83917999999997 C 128.05241 81.48989199999997 128.03251 80.08257299999997 127.56848000000001 79.66267899999997 C 127.12504000000001 79.26130599999996 124.88402 79.22479399999997 100.75958 79.22479399999997 L 74.434333 79.22479399999997 L 73.858863 79.83703899999998 M 75.929493 113.88520999999997 L 75.929493 145.89979999999997 L 100.80032 145.89979999999997 L 125.67116 145.89979999999997 L 125.67116 113.88521 L 125.67116 81.870627 L 100.80032 81.870627 L 75.929493 81.870627 L 75.929493 113.88521 M 100.36641 84.849041 C 98.773093 87.263629 98.469873 89.600429 99.336653 92.784689 C 99.501223 93.388998 99.451483 93.511764 99.042963 93.509648 C 98.264293 93.505648 95.767953 92.248908 94.540283 91.242962 C 93.521373 90.407937 93.395433 90.366398 93.171863 90.793435 C 91.540173 93.906523 93.770083 97.26170400000001 98.485223 98.78835000000001 C 99.031053 98.96509100000002 99.477413 99.222531 99.477413 99.36037900000001 C 99.477413 99.49849100000002 99.149853 99.443989 98.749803 99.23972900000001 C 98.349753 99.03520600000002 97.468693 98.801843 96.792413 98.721145 C 96.115873 98.640185 94.806193 98.18033700000001 93.882003 97.698795 C 92.957543 97.217254 92.128343 96.788364 92.039183 96.745502 C 91.70845299999999 96.586223 91.567163 98.671404 91.829633 99.841916 C 92.293183 101.91017 93.863213 103.10979 97.228453 103.96651 L 99.345113 104.50521 L 99.418913 110.71656 C 99.502313 117.74099 99.382913 118.38604000000001 97.68325300000001 120.09366 C 97.14217300000001 120.63738 96.04442300000001 121.42319 95.24405300000001 121.83965 C 94.44369300000001 122.2561 93.53273300000001 122.80987 93.219733 123.06969000000001 C 92.618863 123.56896 91.925123 126.05605000000001 92.387083 126.05605000000001 C 92.629183 126.05605000000001 95.640403 124.48574 98.13754300000001 123.05726000000001 C 99.04903300000001 122.53577000000001 99.424473 122.44660000000002 99.81870300000001 122.65747000000002 C 100.26055000000001 122.89401000000002 100.30315000000002 123.11388000000002 100.14705000000001 124.36113000000002 C 99.997033 125.56392000000001 100.03963 125.82083000000002 100.41348 125.96424000000002 C 100.73045 126.08594000000002 101.21914000000001 125.74278000000002 102.11105 124.77255000000002 C 102.80002 124.02325000000002 103.53768000000001 123.41021000000002 103.75041 123.41021000000002 C 103.96313 123.41021000000002 104.54045 123.70787000000001 105.03364 124.07167000000003 C 105.52682 124.43547000000002 106.12742 124.73313000000003 106.36846 124.73313000000003 C 106.93652 124.73313000000003 109.23125 125.94624000000003 109.98373 126.64422000000003 L 110.56845 127.18635000000003 L 110.88065999999999 126.50081000000003 C 111.53232999999999 125.07074000000003 109.76015 122.96704000000003 107.06430999999999 121.97088000000002 C 106.36210999999999 121.71159000000003 105.32043999999999 121.05463000000002 104.74920999999999 120.51144000000002 L 103.71072 119.52348000000002 L 103.71072 111.99027000000002 L 103.71072 104.45705000000002 L 105.62894999999999 104.00329000000002 C 109.27040999999998 103.14234000000002 111.11534999999999 101.50562000000002 111.32753999999998 98.94842300000002 C 111.51962999999998 96.63067300000002 111.42808999999998 96.57299300000003 109.28257999999998 97.65963700000002 C 107.45880999999999 98.58356200000001 104.76163999999999 99.19342700000001 105.12941999999998 98.59864300000002 C 105.22541999999999 98.44280400000002 105.63026999999998 98.23695800000003 106.02872999999998 98.14091400000002 C 107.16405999999998 97.86760000000002 109.07619999999999 96.35233100000002 109.72575999999998 95.21171200000002 C 110.38033999999998 94.06183300000002 110.48246999999998 92.73388900000002 110.02155999999998 91.36890400000001 C 109.60457999999998 90.13488700000002 109.62838999999998 90.14017900000002 108.66768999999998 91.06463300000001 C 107.74243999999997 91.95469100000001 105.64746999999998 93.09160600000001 104.37217999999999 93.39587700000001 C 103.93561999999999 93.50012300000002 103.42972999999999 93.70252900000001 103.24769999999998 93.84566800000002 C 102.82197999999998 94.18116000000002 102.83123999999998 94.04675200000001 103.31379999999999 92.89158100000002 C 103.93239999999999 91.41097300000001 103.84402999999999 87.93620000000001 103.15240999999999 86.55639800000002 C 102.62217999999999 85.49859400000001 101.4014 83.98517700000002 101.08151 83.98914600000002 C 100.99951 83.99024600000001 100.67775999999999 84.37702500000002 100.36635 84.84904100000001 M 101.59401 89.26864100000002 C 101.59401 91.28556000000002 101.67631 91.94146200000002 101.91892 91.86050000000002 C 102.09751 91.80097000000002 102.3994 91.22550000000001 102.58964 90.58176800000001 C 102.96985000000001 89.294306 102.65574000000001 87.44963100000001 101.95781000000001 86.87045800000001 C 101.65301000000001 86.61751600000001 101.59401000000001 87.00724800000002 101.59401000000001 89.26864100000002 M 100.34491000000001 87.62531400000002 C 100.06208000000001 88.64872300000002 100.17743000000002 91.40779800000001 100.51689000000002 91.74725800000002 C 100.71824000000002 91.94860600000001 100.80026000000002 91.28847100000002 100.80026000000002 89.46416800000002 C 100.80026000000002 88.05261600000001 100.74306000000003 86.89771000000002 100.67300000000002 86.89771000000002 C 100.60310000000001 86.89771000000002 100.45525000000002 87.22500000000002 100.34491000000001 87.62531400000002 M 94.450263 93.07440800000002 C 94.450263 93.53742900000002 95.01621300000001 94.00706400000001 96.998463 95.19001600000001 C 98.544433 96.11261800000001 99.477353 96.39942700000002 99.477353 95.95254500000001 C 99.477353 95.43449100000001 98.611103 94.59682100000002 97.91816299999999 94.44442100000002 C 97.497473 94.35208100000003 96.600533 93.92610200000001 95.924793 93.49747700000002 C 94.523823 92.60900600000002 94.45026299999999 92.58783900000002 94.45026299999999 93.07440800000002 M 106.75074 93.60410400000002 C 105.87629 94.06289100000002 104.86425999999999 94.55739800000002 104.50178 94.70291800000003 C 103.83529999999999 94.97067700000002 103.40693999999999 96.15812700000002 103.97685 96.15812700000002 C 104.36605 96.15812700000002 107.77944 94.16819600000002 108.32343 93.62421200000003 C 108.75787 93.18976600000003 108.87799 92.70055200000003 108.53933 92.74420800000003 C 108.43032000000001 92.75822800000003 107.62545 93.14505200000004 106.75074000000001 93.60410400000004 M 94.450263 94.60740400000003 C 94.450263 95.24743100000003 95.802283 96.34412900000004 97.328933 96.94261600000003 C 98.111833 97.24926800000003 98.816423 97.43659300000003 98.894473 97.35854100000003 C 99.073593 97.17915400000003 99.116453 97.20958100000003 97.22839300000001 96.17479500000003 C 96.35526300000001 95.69616400000004 95.37287300000001 95.05904800000003 95.04558300000001 94.75927500000003 C 94.58679300000001 94.33885200000003 94.450263 94.30392700000003 94.450263 94.60740400000003 M 107.28255 95.2641 C 106.55495 95.77501 105.51329 96.376673 104.96745 96.601039 C 103.90171 97.039454 103.58394 97.63212 104.57057999999999 97.341079 C 106.37001 96.81006 107.93369 95.887458 108.32897999999999 95.123077 C 108.56128999999999 94.673814 108.71844999999999 94.312658 108.67849999999999 94.320596 C 108.63829999999999 94.328496 108.01015999999998 94.75318899999999 107.28254999999999 95.2641 M 93.39193299999998 99.18152 C 93.39193299999998 99.747996 98.48410299999998 102.00198 98.87674299999998 101.60934 C 98.95554299999998 101.53074000000001 98.82964299999998 101.17622 98.59734299999998 100.82168 C 98.30604299999997 100.37665 97.82317299999998 100.12 97.04027299999998 99.993266 C 96.41612299999998 99.89219600000001 95.38424299999998 99.583426 94.74739299999999 99.306933 C 93.36097299999999 98.705006 93.391933 98.707652 93.391933 99.18152 M 103.71834999999999 99.05822500000001 C 103.07144999999998 99.46727000000001 103.52996999999999 99.58183600000001 104.24037999999999 99.188664 C 104.62348999999999 98.976468 104.73461999999999 98.820364 104.50442999999999 98.817454 C 104.28614999999999 98.814554 103.93239999999999 98.922758 103.71834999999999 99.058225 M 108.73775999999998 99.18099099999999 C 108.37395999999998 99.37678299999999 107.38414999999998 99.690316 106.53801999999997 99.877906 C 105.46300999999997 100.11603 104.83991999999998 100.42215999999999 104.46844999999998 100.89390999999999 C 104.17634999999997 101.26538 104.05304999999997 101.60802 104.19486999999998 101.65538 C 104.53114999999998 101.76729999999999 108.43216999999999 100.25997 109.20077999999998 99.72074599999999 C 109.77545999999998 99.317516 110.00537999999997 98.79284799999999 109.59765999999998 98.81454299999999 C 109.48864999999998 98.82034299999998 109.10155999999998 98.98519999999999 108.73775999999998 99.18099099999999 M 93.82082299999998 101.04074999999999 C 94.03513299999997 101.59928999999998 95.99225299999998 102.47585 97.48080299999998 102.67984999999999 C 98.97384299999997 102.88436999999999 98.99845299999998 102.40679999999999 97.50730299999998 102.16496999999998 C 96.99903299999998 102.08246999999999 95.97430299999998 101.70908999999999 95.23029299999997 101.33549999999998 C 93.65047299999998 100.54200999999998 93.62745299999997 100.53724999999999 93.82086299999997 101.04074999999999 M 108.07633999999997 101.22173 C 107.49425999999997 101.49159999999999 106.36316999999997 101.91413999999999 105.56279999999997 102.16072999999999 C 103.75992999999997 102.71635999999998 104.50763999999997 102.98331999999999 106.51662999999996 102.50151999999999 C 107.78847999999996 102.19644999999998 109.57388999999996 101.12409999999998 109.26696999999996 100.84971999999999 C 109.19416999999996 100.78461999999999 108.65842999999995 100.95212 108.07633999999996 101.22173 M 88.10030299999995 106.60916999999999 L 88.10030299999995 108.06437999999999 L 91.14301299999995 108.06437999999999 L 94.18572299999995 108.06437999999999 L 94.18572299999995 111.83468999999998 L 94.18572299999995 115.60526999999998 L 87.46160299999995 122.08729999999997 L 80.73748299999995 128.56958999999998 L 80.71468299999995 135.91177999999996 L 80.69188299999995 143.25395999999998 L 101.46166999999994 143.25395999999998 L 122.23145999999994 143.25395999999998 L 122.23145999999994 136.04222 L 122.23145999999994 128.8302 L 115.48458999999994 122.08729999999998 L 108.73770999999994 115.34438999999999 L 108.73770999999994 111.70424999999999 L 108.73770999999994 108.06437999999999 L 111.78041999999994 108.06437999999999 L 114.82312999999994 108.06437999999999 L 114.82312999999994 106.60916999999999 L 114.82312999999994 105.15396 L 110.19291999999993 105.15396 L 105.56270999999992 105.15396 L 105.56270999999992 111.17535 L 105.56270999999992 117.19646999999999 L 112.04499999999993 123.67479999999999 L 118.52729999999993 130.15312 L 118.52729999999993 135.25032 L 118.52729999999993 140.34751999999997 L 101.39552999999992 140.27921999999998 L 84.26375299999992 140.21121999999997 L 84.35055299999992 135.05183999999997 L 84.43735299999992 129.89246999999997 L 91.03130299999992 123.27602999999998 L 97.62524299999993 116.65958999999998 L 97.62524299999993 110.90679999999998 L 97.62524299999993 105.15395999999997 L 92.86274299999992 105.15395999999997 L 88.10024299999992 105.15395999999997 L 88.10024299999992 106.60916999999996 M 103.87443999999992 128.44522999999995 C 102.71502999999993 129.46308999999997 102.12315999999993 131.18102999999996 102.12315999999993 133.52787999999995 C 102.12315999999993 135.76995999999994 103.05739999999993 138.01229999999995 104.24775999999993 138.62798999999995 C 105.23756999999993 139.13968999999994 106.87745999999993 139.12910999999994 107.62410999999993 138.60628999999994 C 108.30091999999993 138.13215999999994 109.11609999999993 136.64255999999995 109.38781999999993 135.38260999999994 L 109.57355999999993 134.52270999999993 L 108.38769999999992 134.52270999999993 C 107.30819999999993 134.52270999999993 107.17722999999992 134.59390999999994 106.92534999999992 135.31645999999992 C 106.70150999999993 135.9586099999999 106.49803999999992 136.1102099999999 105.86171999999992 136.1102099999999 C 105.19073999999992 136.1102099999999 105.02748999999991 135.96786999999992 104.75655999999992 135.14606999999992 C 104.35094999999993 133.9173499999999 104.59277999999992 131.45168999999993 105.18279999999993 130.79975999999994 C 105.72545999999993 130.20021999999994 106.48851999999992 130.50262999999993 106.94121999999993 131.49640999999994 C 107.18701999999993 132.03588999999994 107.42302999999993 132.14145999999994 108.38346999999993 132.14145999999994 C 109.01475999999994 132.14145999999994 109.53148999999993 132.02689999999993 109.53148999999993 131.88692999999995 C 109.53148999999993 131.74670999999995 109.28701999999993 130.97861999999995 108.98803999999993 130.17983999999996 C 108.04056999999993 127.64698999999996 105.69106999999993 126.85005999999996 103.87443999999992 128.44522999999995 M 87.74755299999993 128.08460999999994 C 87.65045299999993 128.18140999999994 87.57108299999993 130.62222999999994 87.57108299999993 133.50856999999993 L 87.57108299999993 138.75604999999993 L 88.88288299999994 138.75604999999993 L 90.19468299999994 138.75604999999993 L 90.27198299999993 136.70552999999992 L 90.34928299999993 134.65500999999992 L 91.34147299999992 134.57300999999993 L 92.33366299999992 134.49070999999992 L 92.33366299999992 136.62351999999993 L 92.33366299999992 138.75605999999993 L 93.52428299999991 138.75605999999993 L 94.71491299999991 138.75605999999993 L 94.71491299999991 133.33209999999994 L 94.71491299999991 127.90813999999995 L 93.52428299999991 127.90813999999995 L 92.33366299999992 127.90813999999995 L 92.33366299999992 129.77609999999996 L 92.33366299999992 131.64431999999996 L 91.34147299999992 131.56201999999996 L 90.34928299999993 131.48001999999997 L 90.27098299999993 129.69407999999996 L 90.19288299999992 127.90813999999996 L 89.05835299999993 127.90813999999996 C 88.43446299999992 127.90813999999996 87.84444299999993 127.98753999999997 87.74760299999993 128.08461999999997 M 96.03779299999992 133.33209999999997 L 96.03779299999992 138.75605999999996 L 97.36071299999992 138.75605999999996 L 98.68363299999992 138.75605999999996 L 98.68363299999992 136.91904999999997 L 98.68363299999992 135.08231999999998 L 99.80811299999992 135.00081999999998 L 100.93257999999992 134.91961999999998 L 101.01327999999991 133.66285 L 101.0939799999999 132.40608 L 99.8888029999999 132.40608 C 98.6878629999999 132.40608 98.6836329999999 132.40308000000002 98.6836329999999 131.48004 L 98.6836329999999 130.55399 L 100.2711299999999 130.55399 L 101.8586299999999 130.55399 L 101.8586299999999 129.23108 L 101.8586299999999 127.90816 L 98.94821299999991 127.90816 L 96.03779299999991 127.90816 L 96.03779299999991 133.33212 M 110.32528999999991 133.31762 L 110.32528999999991 138.75613 L 113.25025999999991 138.75613 L 116.17522999999991 138.75613 L 116.09452999999992 137.49936000000002 L 116.01382999999993 136.24259000000004 L 114.49935999999992 136.16349000000002 L 112.98487999999992 136.08439 L 112.91187999999993 132.06246000000002 L 112.83887999999993 128.04053000000002 L 111.58210999999993 127.95983000000003 L 110.32533999999993 127.87913000000003 L 110.32533999999993 133.31764000000004" stroke-linecap="round" />
</g>
</svg>